<svg xmlns="http://www.w3.org/2000/svg"><defs><symbol viewBox="0 0 512 512" id="caret-down"><path fill="currentColor" d="m98 190.06l139.78 163.12a24 24 0 0 0 36.44 0L414 190.06c13.34-15.57 2.28-39.62-18.22-39.62h-279.6c-20.5 0-31.56 24.05-18.18 39.62"/></symbol><symbol viewBox="0 0 512 512" id="caret-up"><path fill="currentColor" d="M414 321.94L274.22 158.82a24 24 0 0 0-36.44 0L98 321.94c-13.34 15.57-2.28 39.62 18.22 39.62h279.6c20.5 0 31.56-24.05 18.18-39.62"/></symbol><symbol viewBox="0 0 512 512" id="ellipsis-vertical"><circle cx="256" cy="256" r="48" fill="currentColor"/><circle cx="256" cy="416" r="48" fill="currentColor"/><circle cx="256" cy="96" r="48" fill="currentColor"/></symbol><symbol viewBox="0 0 512 512" id="filter"><path fill="currentColor" d="M472 168H40a24 24 0 0 1 0-48h432a24 24 0 0 1 0 48m-80 112H120a24 24 0 0 1 0-48h272a24 24 0 0 1 0 48m-96 112h-80a24 24 0 0 1 0-48h80a24 24 0 0 1 0 48"/></symbol><symbol viewBox="0 0 512 512" id="game-controller"><path fill="currentColor" d="M483.13 245.38C461.92 149.49 430 98.31 382.65 84.33A107.1 107.1 0 0 0 352 80c-13.71 0-25.65 3.34-38.28 6.88C298.5 91.15 281.21 96 256 96s-42.51-4.84-57.76-9.11C185.6 83.34 173.67 80 160 80a115.7 115.7 0 0 0-31.73 4.32c-47.1 13.92-79 65.08-100.52 161C4.61 348.54 16 413.71 59.69 428.83a56.6 56.6 0 0 0 18.64 3.22c29.93 0 53.93-24.93 70.33-45.34c18.53-23.1 40.22-34.82 107.34-34.82c59.95 0 84.76 8.13 106.19 34.82c13.47 16.78 26.2 28.52 38.9 35.91c16.89 9.82 33.77 12 50.16 6.37c25.82-8.81 40.62-32.1 44-69.24c2.57-28.48-1.39-65.89-12.12-114.37M208 240h-32v32a16 16 0 0 1-32 0v-32h-32a16 16 0 0 1 0-32h32v-32a16 16 0 0 1 32 0v32h32a16 16 0 0 1 0 32m84 4a20 20 0 1 1 20-20a20 20 0 0 1-20 20m44 44a20 20 0 1 1 20-19.95A20 20 0 0 1 336 288m0-88a20 20 0 1 1 20-20a20 20 0 0 1-20 20m44 44a20 20 0 1 1 20-20a20 20 0 0 1-20 20"/></symbol><symbol viewBox="0 0 512 512" id="logo-github"><path fill="currentColor" d="M256 32C132.3 32 32 134.9 32 261.7c0 101.5 64.2 187.5 153.2 217.9a17.6 17.6 0 0 0 3.8.4c8.3 0 11.5-6.1 11.5-11.4c0-5.5-.2-19.9-.3-39.1a102.4 102.4 0 0 1-22.6 2.7c-43.1 0-52.9-33.5-52.9-33.5c-10.2-26.5-24.9-33.6-24.9-33.6c-19.5-13.7-.1-14.1 1.4-14.1h.1c22.5 2 34.3 23.8 34.3 23.8c11.2 19.6 26.2 25.1 39.6 25.1a63 63 0 0 0 25.6-6c2-14.8 7.8-24.9 14.2-30.7c-49.7-5.8-102-25.5-102-113.5c0-25.1 8.7-45.6 23-61.6c-2.3-5.8-10-29.2 2.2-60.8a18.6 18.6 0 0 1 5-.5c8.1 0 26.4 3.1 56.6 24.1a208.2 208.2 0 0 1 112.2 0c30.2-21 48.5-24.1 56.6-24.1a18.6 18.6 0 0 1 5 .5c12.2 31.6 4.5 55 2.2 60.8c14.3 16.1 23 36.6 23 61.6c0 88.2-52.4 107.6-102.3 113.3c8 7.1 15.2 21.1 15.2 42.5c0 30.7-.3 55.5-.3 63c0 5.4 3.1 11.5 11.4 11.5a19.4 19.4 0 0 0 4-.4C415.9 449.2 480 363.1 480 261.7C480 134.9 379.7 32 256 32"/></symbol><symbol viewBox="0 0 512 512" id="md-expand"><path d="M396.795 396.8H320V448h128V320h-51.205z" fill="currentColor"/><path d="M396.8 115.205V192H448V64H320v51.205z" fill="currentColor"/><path d="M115.205 115.2H192V64H64v128h51.205z" fill="currentColor"/><path d="M115.2 396.795V320H64v128h128v-51.205z" fill="currentColor"/></symbol><symbol viewBox="0 0 512 512" id="playstation"><path d="M399.8 203c-.8-17.1-3.3-34.5-10.8-50.1-4.1-8.6-9.7-16.5-16.5-23.2-6.3-6.4-13.6-11.7-21.3-16.3-17.1-10.2-37.5-17-84.4-31S192 64 192 64v358.3l79.9 25.7s.1-198.8.1-299.5v-3.8c0-9.3 7.5-16.8 16.1-16.8h.5c8.5 0 15.5 7.5 15.5 16.8V278c11 5.3 29.2 9.3 41.8 9.1 8.3.2 16.7-1.7 24-5.7 7.6-4.1 13.9-10.4 18.4-17.8 5.1-8.3 8.2-17.8 9.9-27.3 1.9-10.8 2-22.1 1.6-33.3z" fill="currentColor"/><path d="M86.7 357.8c27.4-9.8 89.3-29.5 89.3-29.5v-47.2s-76.5 24.8-111.3 37.1c-8.6 3.1-17.3 5.9-25.7 9.5-9.8 4.1-19.4 8.7-28.1 14.8-3.8 2.6-7.2 5.9-9.2 10.1-2 4.2-2.2 9.2-.5 13.6 2 5.1 5.8 9.3 10.1 12.6 7.8 5.9 17.1 9.5 26.4 12.2 28.4 9.4 58.4 14 88.4 13.3 14.5-.2 36-1.9 50-4.4v-42s-11 2.5-41.3 12.5c-4.6 1.5-9.2 3.3-14 4.3-7.1 1.6-14.4 2.1-21.6 2.2-6.5-.3-13.2-.7-19.3-3.1-2.2-1-4.6-2.2-5.5-4.6-.8-2 .3-4 1.7-5.4 2.8-2.9 6.8-4.5 10.6-6z" fill="currentColor"/><path d="M512 345.9c-.1-6-3.7-11.2-7.9-15-7.1-6.3-15.9-10.3-24.7-13.5-5.5-1.9-9.3-3.3-14.7-5-25.2-8.2-51.9-11.2-78.3-11.3-8 .3-23.1.5-31 1.4-21.9 2.5-67.3 15.4-67.3 15.4v48.8s67.5-21.6 96.5-31.8c9.7-3.3 20.1-4.6 30.3-4.6 6.5.2 13.2.7 19.4 3.1 2.2.9 4.5 2.2 5.5 4.5.9 2.6-.9 5-2.9 6.5-4.7 3.8-10.7 5.3-16.2 7.4-41 14.5-132.7 44.7-132.7 44.7v47s117.2-39.6 170.8-58.8c8.9-3.3 17.9-6.1 26.4-10.4 7.9-4 15.8-8.6 21.8-15.3 3.1-3.6 5-8 5-13.1z" fill="currentColor"/></symbol><symbol viewBox="0 0 512 512" id="warning-outline"><path fill="none" stroke="currentColor" stroke-linecap="round" stroke-linejoin="round" stroke-width="32" d="M85.57 446.25h340.86a32 32 0 0 0 28.17-47.17L284.18 82.58c-12.09-22.44-44.27-22.44-56.36 0L57.4 399.08a32 32 0 0 0 28.17 47.17"/><path fill="none" stroke="currentColor" stroke-linecap="round" stroke-linejoin="round" stroke-width="32" d="m250.26 195.39l5.74 122l5.73-121.95a5.74 5.74 0 0 0-5.79-6h0a5.74 5.74 0 0 0-5.68 5.95"/><path fill="currentColor" d="M256 397.25a20 20 0 1 1 20-20a20 20 0 0 1-20 20"/></symbol><symbol viewBox="0 0 512 512" id="ios-add"><path d="M368.5 240H272v-96.5c0-8.8-7.2-16-16-16s-16 7.2-16 16V240h-96.5c-8.8 0-16 7.2-16 16 0 4.4 1.8 8.4 4.7 11.3 2.9 2.9 6.9 4.7 11.3 4.7H240v96.5c0 4.4 1.8 8.4 4.7 11.3 2.9 2.9 6.9 4.7 11.3 4.7 8.8 0 16-7.2 16-16V272h96.5c8.8 0 16-7.2 16-16s-7.2-16-16-16z" fill="currentColor"/></symbol><symbol viewBox="0 0 512 512" id="ios-add-circle"><path d="M256 48C141.1 48 48 141.1 48 256s93.1 208 208 208 208-93.1 208-208S370.9 48 256 48zm90.5 224H272v74.5c0 8.8-7.2 16-16 16-4.4 0-8.4-1.8-11.3-4.7-2.9-2.9-4.7-6.9-4.7-11.3V272h-74.5c-4.4 0-8.4-1.8-11.3-4.7-2.9-2.9-4.7-6.9-4.7-11.3 0-8.8 7.2-16 16-16H240v-74.5c0-8.8 7.2-16 16-16s16 7.2 16 16V240h74.5c8.8 0 16 7.2 16 16s-7.2 16-16 16z" fill="currentColor"/></symbol><symbol viewBox="0 0 512 512" id="ios-add-circle-outline"><path d="M346.5 240H272v-74.5c0-8.8-7.2-16-16-16s-16 7.2-16 16V240h-74.5c-8.8 0-16 6-16 16s7.5 16 16 16H240v74.5c0 9.5 7 16 16 16s16-7.2 16-16V272h74.5c8.8 0 16-7.2 16-16s-7.2-16-16-16z" fill="currentColor"/><path d="M256 76c48.1 0 93.3 18.7 127.3 52.7S436 207.9 436 256s-18.7 93.3-52.7 127.3S304.1 436 256 436c-48.1 0-93.3-18.7-127.3-52.7S76 304.1 76 256s18.7-93.3 52.7-127.3S207.9 76 256 76m0-28C141.1 48 48 141.1 48 256s93.1 208 208 208 208-93.1 208-208S370.9 48 256 48z" fill="currentColor"/></symbol><symbol viewBox="0 0 512 512" id="ios-arrow-back"><path d="M217.9 256L345 129c9.4-9.4 9.4-24.6 0-33.9-9.4-9.4-24.6-9.3-34 0L167 239c-9.1 9.1-9.3 23.7-.7 33.1L310.9 417c4.7 4.7 10.9 7 17 7s12.3-2.3 17-7c9.4-9.4 9.4-24.6 0-33.9L217.9 256z" fill="currentColor"/></symbol><symbol viewBox="0 0 512 512" id="ios-arrow-forward"><path d="M294.1 256L167 129c-9.4-9.4-9.4-24.6 0-33.9s24.6-9.3 34 0L345 239c9.1 9.1 9.3 23.7.7 33.1L201.1 417c-4.7 4.7-10.9 7-17 7s-12.3-2.3-17-7c-9.4-9.4-9.4-24.6 0-33.9l127-127.1z" fill="currentColor"/></symbol><symbol viewBox="0 0 512 512" id="ios-calendar"><path d="M424 96h-40v24c0 4.4-3.6 8-8 8h-16c-4.4 0-8-3.6-8-8V96H160v24c0 4.4-3.6 8-8 8h-16c-4.4 0-8-3.6-8-8V96H88c-22 0-40 18-40 40v272c0 22 18 40 40 40h336c22 0 40-18 40-40V136c0-22-18-40-40-40zm8 300c0 11-9 20-20 20H100c-11 0-20-9-20-20V216c0-4.4 3.6-8 8-8h336c4.4 0 8 3.6 8 8v180z" fill="currentColor"/><path d="M160 72c0-4.4-3.6-8-8-8h-16c-4.4 0-8 3.6-8 8v24h32V72z" fill="currentColor"/><path d="M384 72c0-4.4-3.6-8-8-8h-16c-4.4 0-8 3.6-8 8v24h32V72z" fill="currentColor"/></symbol><symbol viewBox="0 0 512 512" id="ios-checkmark"><path d="M362.6 192.9L345 174.8c-.7-.8-1.8-1.2-2.8-1.2-1.1 0-2.1.4-2.8 1.2l-122 122.9-44.4-44.4c-.8-.8-1.8-1.2-2.8-1.2-1 0-2 .4-2.8 1.2l-17.8 17.8c-1.6 1.6-1.6 4.1 0 5.7l56 56c3.6 3.6 8 5.7 11.7 5.7 5.3 0 9.9-3.9 11.6-5.5h.1l133.7-134.4c1.4-1.7 1.4-4.2-.1-5.7z" fill="currentColor"/></symbol><symbol viewBox="0 0 512 512" id="ios-checkmark-circle"><path d="M256 48C141.1 48 48 141.1 48 256s93.1 208 208 208 208-93.1 208-208S370.9 48 256 48zm106.5 150.5L228.8 332.8h-.1c-1.7 1.7-6.3 5.5-11.6 5.5-3.8 0-8.1-2.1-11.7-5.7l-56-56c-1.6-1.6-1.6-4.1 0-5.7l17.8-17.8c.8-.8 1.8-1.2 2.8-1.2 1 0 2 .4 2.8 1.2l44.4 44.4 122-122.9c.8-.8 1.8-1.2 2.8-1.2 1.1 0 2.1.4 2.8 1.2l17.5 18.1c1.8 1.7 1.8 4.2.2 5.8z" fill="currentColor"/></symbol><symbol viewBox="0 0 512 512" id="ios-checkmark-circle-outline"><path d="M362.6 192.9L345 174.8c-.7-.8-1.8-1.2-2.8-1.2-1.1 0-2.1.4-2.8 1.2l-122 122.9-44.4-44.4c-.8-.8-1.8-1.2-2.8-1.2-1 0-2 .4-2.8 1.2l-17.8 17.8c-1.6 1.6-1.6 4.1 0 5.7l56 56c3.6 3.6 8 5.7 11.7 5.7 5.3 0 9.9-3.9 11.6-5.5h.1l133.7-134.4c1.4-1.7 1.4-4.2-.1-5.7z" fill="currentColor"/><path d="M256 76c48.1 0 93.3 18.7 127.3 52.7S436 207.9 436 256s-18.7 93.3-52.7 127.3S304.1 436 256 436c-48.1 0-93.3-18.7-127.3-52.7S76 304.1 76 256s18.7-93.3 52.7-127.3S207.9 76 256 76m0-28C141.1 48 48 141.1 48 256s93.1 208 208 208 208-93.1 208-208S370.9 48 256 48z" fill="currentColor"/></symbol><symbol viewBox="0 0 512 512" id="ios-clock-outline"><path d="M256 48C141.1 48 48 141.1 48 256s93.1 208 208 208 208-93.1 208-208S370.9 48 256 48zm0 398.7c-105.1 0-190.7-85.5-190.7-190.7 0-105.1 85.5-190.7 190.7-190.7 105.1 0 190.7 85.5 190.7 190.7 0 105.1-85.6 190.7-190.7 190.7z" fill="currentColor"/><path d="M256 256h-96v17.3h113.3V128H256z" fill="currentColor"/></symbol><symbol viewBox="0 0 512 512" id="ios-close"><path d="M278.6 256l68.2-68.2c6.2-6.2 6.2-16.4 0-22.6-6.2-6.2-16.4-6.2-22.6 0L256 233.4l-68.2-68.2c-6.2-6.2-16.4-6.2-22.6 0-3.1 3.1-4.7 7.2-4.7 11.3 0 4.1 1.6 8.2 4.7 11.3l68.2 68.2-68.2 68.2c-3.1 3.1-4.7 7.2-4.7 11.3 0 4.1 1.6 8.2 4.7 11.3 6.2 6.2 16.4 6.2 22.6 0l68.2-68.2 68.2 68.2c6.2 6.2 16.4 6.2 22.6 0 6.2-6.2 6.2-16.4 0-22.6L278.6 256z" fill="currentColor"/></symbol><symbol viewBox="0 0 512 512" id="ios-close-circle"><path d="M256 48C141.1 48 48 141.1 48 256s93.1 208 208 208 208-93.1 208-208S370.9 48 256 48zm52.7 283.3L256 278.6l-52.7 52.7c-6.2 6.2-16.4 6.2-22.6 0-3.1-3.1-4.7-7.2-4.7-11.3 0-4.1 1.6-8.2 4.7-11.3l52.7-52.7-52.7-52.7c-3.1-3.1-4.7-7.2-4.7-11.3 0-4.1 1.6-8.2 4.7-11.3 6.2-6.2 16.4-6.2 22.6 0l52.7 52.7 52.7-52.7c6.2-6.2 16.4-6.2 22.6 0 6.2 6.2 6.2 16.4 0 22.6L278.6 256l52.7 52.7c6.2 6.2 6.2 16.4 0 22.6-6.2 6.3-16.4 6.3-22.6 0z" fill="currentColor"/></symbol><symbol viewBox="0 0 512 512" id="ios-close-circle-outline"><path d="M331.3 308.7L278.6 256l52.7-52.7c6.2-6.2 6.2-16.4 0-22.6-6.2-6.2-16.4-6.2-22.6 0L256 233.4l-52.7-52.7c-6.2-6.2-15.6-7.1-22.6 0-7.1 7.1-6 16.6 0 22.6l52.7 52.7-52.7 52.7c-6.7 6.7-6.4 16.3 0 22.6 6.4 6.4 16.4 6.2 22.6 0l52.7-52.7 52.7 52.7c6.2 6.2 16.4 6.2 22.6 0 6.3-6.2 6.3-16.4 0-22.6z" fill="currentColor"/><path d="M256 76c48.1 0 93.3 18.7 127.3 52.7S436 207.9 436 256s-18.7 93.3-52.7 127.3S304.1 436 256 436c-48.1 0-93.3-18.7-127.3-52.7S76 304.1 76 256s18.7-93.3 52.7-127.3S207.9 76 256 76m0-28C141.1 48 48 141.1 48 256s93.1 208 208 208 208-93.1 208-208S370.9 48 256 48z" fill="currentColor"/></symbol><symbol viewBox="0 0 512 512" id="ios-document"><path d="M312 155h91c2.8 0 5-2.2 5-5 0-8.9-3.9-17.3-10.7-22.9L321 63.5c-5.8-4.8-13-7.4-20.6-7.4-4.1 0-7.4 3.3-7.4 7.4V136c0 10.5 8.5 19 19 19z" fill="currentColor"/><path d="M267 136V56H136c-17.6 0-32 14.4-32 32v336c0 17.6 14.4 32 32 32h240c17.6 0 32-14.4 32-32V181h-96c-24.8 0-45-20.2-45-45z" fill="currentColor"/></symbol><symbol viewBox="0 0 512 512" id="ios-exit"><path d="M144 136v107h179.9l-47.2-47.9c-5-5.1-5-13.3.1-18.4 5.1-5 13.3-5 18.4.1l69 70c2.4 2.5 3.7 5.8 3.7 9.1 0 1.7-.3 3.4-1 5-.6 1.5-1.6 2.9-2.7 4.1l-69 70c-5 5.1-13.3 5.2-18.4.1-5.1-5-5.2-13.3-.1-18.4l47.2-47.9H144v107c0 22 18 40 40 40h240c22 0 40-18 40-40V136c0-22-18-40-40-40H184c-22 0-40 18-40 40z" fill="currentColor"/><path d="M61 243c-7.2 0-13 5.8-13 13s5.8 13 13 13h83v-26H61z" fill="currentColor"/></symbol><symbol viewBox="0 0 512 512" id="ios-help"><path d="M256.7 160c37.5 0 63.3 20.8 63.3 50.7 0 19.8-9.6 33.5-28.1 44.4-17.4 10.1-23.3 17.5-23.3 30.3v7.9h-34.7l-.3-8.6c-1.7-20.6 5.5-33.4 23.6-44 16.9-10.1 24-16.5 24-28.9s-12-21.5-26.9-21.5c-15.1 0-26 9.8-26.8 24.6H192c.7-32.2 24.5-54.9 64.7-54.9zm-26.3 171.4c0-11.5 9.6-20.6 21.4-20.6 11.9 0 21.5 9 21.5 20.6s-9.6 20.6-21.5 20.6-21.4-9-21.4-20.6z" fill="currentColor"/></symbol><symbol viewBox="0 0 512 512" id="ios-help-circle"><path d="M256 48C141.1 48 48 141.1 48 256s93.1 208 208 208 208-93.1 208-208S370.9 48 256 48zm-4.3 304c-11.8 0-21.4-9-21.4-20.6 0-11.5 9.6-20.6 21.4-20.6 11.9 0 21.5 9 21.5 20.6 0 11.6-9.5 20.6-21.5 20.6zm40.2-96.9c-17.4 10.1-23.3 17.5-23.3 30.3v7.9h-34.7l-.3-8.6c-1.7-20.6 5.5-33.4 23.6-44 16.9-10.1 24-16.5 24-28.9s-12-21.5-26.9-21.5c-15.1 0-26 9.8-26.8 24.6H192c.7-32.2 24.5-55 64.7-55 37.5 0 63.3 20.8 63.3 50.7 0 19.9-9.6 33.6-28.1 44.5z" fill="currentColor"/></symbol><symbol viewBox="0 0 512 512" id="ios-help-circle-outline"><path d="M256 76c48.1 0 93.3 18.7 127.3 52.7S436 207.9 436 256s-18.7 93.3-52.7 127.3S304.1 436 256 436c-48.1 0-93.3-18.7-127.3-52.7S76 304.1 76 256s18.7-93.3 52.7-127.3S207.9 76 256 76m0-28C141.1 48 48 141.1 48 256s93.1 208 208 208 208-93.1 208-208S370.9 48 256 48z" fill="currentColor"/><path d="M256.7 160c37.5 0 63.3 20.8 63.3 50.7 0 19.8-9.6 33.5-28.1 44.4-17.4 10.1-23.3 17.5-23.3 30.3v7.9h-34.7l-.3-8.6c-1.7-20.6 5.5-33.4 23.6-44 16.9-10.1 24-16.5 24-28.9s-12-21.5-26.9-21.5c-15.1 0-26 9.8-26.8 24.6H192c.7-32.2 24.5-54.9 64.7-54.9zm-26.3 171.4c0-11.5 9.6-20.6 21.4-20.6 11.9 0 21.5 9 21.5 20.6s-9.6 20.6-21.5 20.6-21.4-9-21.4-20.6z" fill="currentColor"/></symbol><symbol viewBox="0 0 512 512" id="ios-information"><path d="M235.4 176c0-11.4 9.3-19.9 20.5-19.9 11.4 0 20.7 8.5 20.7 19.9s-9.3 20-20.7 20c-11.2.1-20.5-8.6-20.5-20zm1.4 35.8H275v144.1h-38.2V211.8z" fill="currentColor"/></symbol><symbol viewBox="0 0 512 512" id="ios-information-circle"><path d="M256 48C141.1 48 48 141.1 48 256s93.1 208 208 208 208-93.1 208-208S370.9 48 256 48zm19 304h-38.2V207.9H275V352zm-19.1-159.8c-11.3 0-20.5-8.6-20.5-20s9.3-19.9 20.5-19.9c11.4 0 20.7 8.5 20.7 19.9s-9.3 20-20.7 20z" fill="currentColor"/></symbol><symbol viewBox="0 0 512 512" id="ios-information-circle-outline"><path d="M235.4 172.2c0-11.4 9.3-19.9 20.5-19.9 11.4 0 20.7 8.5 20.7 19.9s-9.3 20-20.7 20c-11.2 0-20.5-8.6-20.5-20zm1.4 35.7H275V352h-38.2V207.9z" fill="currentColor"/><path d="M256 76c48.1 0 93.3 18.7 127.3 52.7S436 207.9 436 256s-18.7 93.3-52.7 127.3S304.1 436 256 436c-48.1 0-93.3-18.7-127.3-52.7S76 304.1 76 256s18.7-93.3 52.7-127.3S207.9 76 256 76m0-28C141.1 48 48 141.1 48 256s93.1 208 208 208 208-93.1 208-208S370.9 48 256 48z" fill="currentColor"/></symbol><symbol viewBox="0 0 512 512" id="ios-settings"><path d="M416.3 256c0-21 13.1-38.9 31.7-46.1-4.9-20.5-13-39.7-23.7-57.1-6.4 2.8-13.2 4.3-20.1 4.3-12.6 0-25.2-4.8-34.9-14.4-14.9-14.9-18.2-36.8-10.2-55-17.3-10.7-36.6-18.8-57-23.7C295 82.5 277 95.7 256 95.7S217 82.5 209.9 64c-20.5 4.9-39.7 13-57.1 23.7 8.1 18.1 4.7 40.1-10.2 55-9.6 9.6-22.3 14.4-34.9 14.4-6.9 0-13.7-1.4-20.1-4.3C77 170.3 68.9 189.5 64 210c18.5 7.1 31.7 25 31.7 46.1 0 21-13.1 38.9-31.6 46.1 4.9 20.5 13 39.7 23.7 57.1 6.4-2.8 13.2-4.2 20-4.2 12.6 0 25.2 4.8 34.9 14.4 14.8 14.8 18.2 36.8 10.2 54.9 17.4 10.7 36.7 18.8 57.1 23.7 7.1-18.5 25-31.6 46-31.6s38.9 13.1 46 31.6c20.5-4.9 39.7-13 57.1-23.7-8-18.1-4.6-40 10.2-54.9 9.6-9.6 22.2-14.4 34.9-14.4 6.8 0 13.7 1.4 20 4.2 10.7-17.4 18.8-36.7 23.7-57.1-18.4-7.2-31.6-25.1-31.6-46.2zm-159.4 79.9c-44.3 0-80-35.9-80-80s35.7-80 80-80 80 35.9 80 80-35.7 80-80 80z" fill="currentColor"/></symbol><symbol viewBox="0 0 512 512" id="ios-trash"><path d="M133.1 128l23.6 290.7c0 16.2 13.1 29.3 29.3 29.3h141c16.2 0 29.3-13.1 29.3-29.3L379.6 128H133.1zm61.6 265L188 160h18.5l6.9 233h-18.7zm70.3 0h-18V160h18v233zm52.3 0h-18.6l6.8-233H324l-6.7 233z" fill="currentColor"/><path d="M364 92h-36l-26.3-23c-3.7-3.2-8.4-5-13.2-5h-64.8c-4.9 0-9.7 1.8-13.4 5L184 92h-36c-17.6 0-30 8.4-30 26h276c0-17.6-12.4-26-30-26z" fill="currentColor"/></symbol><symbol viewBox="0 0 512 512" id="ios-trash-outline"><path d="M400 113.3h-80v-20c0-16.2-13.1-29.3-29.3-29.3h-69.5C205.1 64 192 77.1 192 93.3v20h-80V128h21.1l23.6 290.7c0 16.2 13.1 29.3 29.3 29.3h141c16.2 0 29.3-13.1 29.3-29.3L379.6 128H400v-14.7zm-193.4-20c0-8.1 6.6-14.7 14.6-14.7h69.5c8.1 0 14.6 6.6 14.6 14.7v20h-98.7v-20zm135 324.6v.8c0 8.1-6.6 14.7-14.6 14.7H186c-8.1 0-14.6-6.6-14.6-14.7v-.8L147.7 128h217.2l-23.3 289.9z" fill="currentColor"/><path d="M249 160h14v241h-14z" fill="currentColor"/><path d="M320 160h-14.6l-10.7 241h14.6z" fill="currentColor"/><path d="M206.5 160H192l10.7 241h14.6z" fill="currentColor"/></symbol><symbol viewBox="0 0 512 512" id="ios-warning"><path d="M228.9 79.9L51.8 403.1C40.6 423.3 55.5 448 78.9 448h354.3c23.3 0 38.2-24.7 27.1-44.9L283.1 79.9c-11.7-21.2-42.5-21.2-54.2 0zM273.6 214L270 336h-28l-3.6-122h35.2zM256 402.4c-10.7 0-19.1-8.1-19.1-18.4s8.4-18.4 19.1-18.4 19.1 8.1 19.1 18.4-8.4 18.4-19.1 18.4z" fill="currentColor"/></symbol></defs></svg>